<svg width="800" height="800" viewBox="0 0 24 24" fill="none" xmlns="http://www.w3.org/2000/svg"><path clip-rule="evenodd" d="M10.427 2.421a3.15 3.15 0 0 1 3.146 0l5.936 3.427a3.15 3.15 0 0 1 1.573 2.725v6.854c0 1.124-.6 2.163-1.573 2.724l-5.936 3.427a3.15 3.15 0 0 1-3.146 0L4.49 18.152a3.15 3.15 0 0 1-1.573-2.724V8.573c0-1.124.6-2.163 1.573-2.725zm.569 12.671a1 1 0 0 1 1-1h.009a1 1 0 1 1 0 2h-.01a1 1 0 0 1-1-1M12.746 8a.75.75 0 0 0-1.5 0v4.539a.75.75 0 0 0 1.5 0z" fill="#000" fill-rule="evenodd"/></svg>